<mxfile host="app.diagrams.net" modified="2024-12-22T12:26:01.087Z" agent="Mozilla/5.0 (Windows NT 10.0; Win64; x64) AppleWebKit/537.36 (KHTML, like Gecko) Chrome/131.0.0.0 Safari/537.36" version="24.6.5" etag="2uRyf77NMK5tHheqyNsR" type="github">
  <diagram name="第 1 页" id="94U5z33kgP1sPfI8PURv">
    <mxGraphModel>
      <root>
        <mxCell id="0" />
        <mxCell id="1" parent="0" />
      </root>
    </mxGraphModel>
  </diagram>
</mxfile>
